<svg width="42" height="42" viewBox="0 0 42 42" fill="none" xmlns="http://www.w3.org/2000/svg">
<circle cx="21" cy="21" r="21" fill="#D9CB86" fill-opacity="0.77"/>
<path d="M20.66 28.16L20.36 27.98C20.36 27.98 20.36 27.81 20.36 27.47C20.36 27.11 20.36 26.66 20.36 26.12C20.38 25.56 20.39 24.95 20.39 24.29C20.39 23.61 20.39 22.95 20.39 22.31C19.75 22.31 19.1 22.31 18.44 22.31C17.78 22.31 17.16 22.32 16.58 22.34C16.02 22.34 15.57 22.34 15.23 22.34C14.89 22.34 14.72 22.34 14.72 22.34L14.51 22.04L14.9 20.03C14.9 20.03 15.18 20.03 15.74 20.03C16.3 20.03 17.01 20.04 17.87 20.06C18.73 20.06 19.57 20.06 20.39 20.06L20.42 14.3L22.46 14.03L22.79 14.24C22.79 14.24 22.78 14.43 22.76 14.81C22.74 15.17 22.72 15.65 22.7 16.25C22.68 16.85 22.66 17.49 22.64 18.17C22.62 18.85 22.61 19.48 22.61 20.06C23.21 20.06 23.84 20.05 24.5 20.03C25.18 20.01 25.82 19.99 26.42 19.97C27.02 19.95 27.51 19.93 27.89 19.91C28.27 19.89 28.46 19.88 28.46 19.88L28.64 20.21L28.37 22.28L22.61 22.31C22.61 23.15 22.61 24 22.61 24.86C22.63 25.7 22.64 26.4 22.64 26.96C22.64 27.52 22.64 27.8 22.64 27.8L20.66 28.16Z" fill="black"/>
</svg>
